<svg xmlns="http://www.w3.org/2000/svg" viewBox="0 0 320 240" fill="none">
  <defs>
    <linearGradient id="sky" x1="160" y1="0" x2="160" y2="160" gradientUnits="userSpaceOnUse">
      <stop offset="0%" stop-color="#FFE8B8"></stop>
      <stop offset="50%" stop-color="#C8DFF8"></stop>
      <stop offset="100%" stop-color="#6BB6F0"></stop>
    </linearGradient>
    <linearGradient id="sand" x1="160" y1="160" x2="160" y2="240" gradientUnits="userSpaceOnUse">
      <stop offset="0%" stop-color="#FFF1CE"></stop>
      <stop offset="100%" stop-color="#E9D5A8"></stop>
    </linearGradient>
  </defs>
  <rect width="320" height="160" fill="url(#sky)"></rect>
  <circle cx="240" cy="70" r="34" fill="#F6C740"></circle>
  <circle cx="240" cy="70" r="50" fill="#F6C740" opacity="0.25"></circle>
  <ellipse cx="70" cy="50" rx="34" ry="8" fill="#FFFFFF" opacity="0.7"></ellipse>
  <ellipse cx="120" cy="40" rx="22" ry="5" fill="#FFFFFF" opacity="0.5"></ellipse>
  <rect y="130" width="320" height="40" fill="#2EA3F2"></rect>
  <path d="M0 132 Q40 128 80 132 T160 132 T240 132 T320 132 V140 H0Z" fill="#3DAFFB"></path>
  <path d="M0 138 Q40 142 80 138 T160 138 T240 138 T320 138 V146 H0Z" fill="#1B7BC4" opacity="0.35"></path>
  <rect y="160" width="320" height="80" fill="url(#sand)"></rect>
  <g fill="#B89564" opacity="0.4">
    <circle cx="20" cy="190" r="1.2"></circle><circle cx="60" cy="200" r="1"></circle><circle cx="100" cy="195" r="1.4"></circle>
    <circle cx="140" cy="210" r="1"></circle><circle cx="180" cy="200" r="1.2"></circle><circle cx="220" cy="215" r="1"></circle>
    <circle cx="260" cy="195" r="1.3"></circle><circle cx="300" cy="205" r="1"></circle>
    <circle cx="40" cy="220" r="1"></circle><circle cx="80" cy="225" r="1.2"></circle><circle cx="160" cy="225" r="1"></circle>
    <circle cx="280" cy="225" r="1.4"></circle>
  </g>
  <g transform="translate(60,170)">
    <path d="M0 0 L30 -36 L60 0 Z" fill="#FF6B5C"></path>
    <path d="M15 -18 L45 -18" stroke="#F5FAFF" stroke-width="2"></path>
    <line x1="30" y1="-36" x2="30" y2="55" stroke="#0B2740" stroke-width="2"></line>
  </g>
</svg>